<mxfile host="app.diagrams.net" modified="2022-03-17T01:48:09.254Z" agent="5.0 (Windows NT 10.0; Win64; x64) AppleWebKit/537.36 (KHTML, like Gecko) Chrome/99.0.4844.51 Safari/537.36 Edg/99.0.1150.39" etag="WgApGWXZr2PuYGYjOuau" version="17.1.3" type="github">
  <diagram id="X_0hJFJff8f0Vfj1QsEx" name="Page-1">
    <mxGraphModel dx="925" dy="536" grid="0" gridSize="10" guides="1" tooltips="1" connect="1" arrows="1" fold="1" page="0" pageScale="1" pageWidth="827" pageHeight="1169" math="0" shadow="0">
      <root>
        <mxCell id="0" />
        <mxCell id="1" parent="0" />
        <mxCell id="i6Ho6Q-GTRiIqyABe8Sr-3" value="table" style="rounded=1;whiteSpace=wrap;html=1;fillColor=#dae8fc;strokeColor=#6c8ebf;" vertex="1" parent="1">
          <mxGeometry x="95" y="579" width="48" height="33" as="geometry" />
        </mxCell>
        <mxCell id="i6Ho6Q-GTRiIqyABe8Sr-29" style="edgeStyle=orthogonalEdgeStyle;rounded=0;orthogonalLoop=1;jettySize=auto;html=1;entryX=0;entryY=0.5;entryDx=0;entryDy=0;fontSize=17;" edge="1" parent="1" source="i6Ho6Q-GTRiIqyABe8Sr-4" target="i6Ho6Q-GTRiIqyABe8Sr-17">
          <mxGeometry relative="1" as="geometry" />
        </mxCell>
        <mxCell id="i6Ho6Q-GTRiIqyABe8Sr-4" value="table" style="rounded=1;whiteSpace=wrap;html=1;fillColor=#dae8fc;strokeColor=#6c8ebf;" vertex="1" parent="1">
          <mxGeometry x="95" y="690" width="48" height="33" as="geometry" />
        </mxCell>
        <mxCell id="i6Ho6Q-GTRiIqyABe8Sr-64" style="edgeStyle=orthogonalEdgeStyle;rounded=0;orthogonalLoop=1;jettySize=auto;html=1;entryX=0;entryY=0.5;entryDx=0;entryDy=0;shadow=0;fontSize=17;" edge="1" parent="1" source="i6Ho6Q-GTRiIqyABe8Sr-7" target="i6Ho6Q-GTRiIqyABe8Sr-22">
          <mxGeometry relative="1" as="geometry" />
        </mxCell>
        <mxCell id="i6Ho6Q-GTRiIqyABe8Sr-7" value="table" style="rounded=1;whiteSpace=wrap;html=1;fillColor=#d5e8d4;strokeColor=#82b366;" vertex="1" parent="1">
          <mxGeometry x="333" y="399" width="48" height="33" as="geometry" />
        </mxCell>
        <mxCell id="i6Ho6Q-GTRiIqyABe8Sr-9" value="ODS" style="text;html=1;strokeColor=none;fillColor=none;align=center;verticalAlign=middle;whiteSpace=wrap;rounded=0;fontSize=17;" vertex="1" parent="1">
          <mxGeometry x="89" y="294" width="60" height="30" as="geometry" />
        </mxCell>
        <mxCell id="i6Ho6Q-GTRiIqyABe8Sr-10" value="DW" style="text;html=1;strokeColor=none;fillColor=none;align=center;verticalAlign=middle;whiteSpace=wrap;rounded=0;fontSize=17;" vertex="1" parent="1">
          <mxGeometry x="207" y="293" width="60" height="30" as="geometry" />
        </mxCell>
        <mxCell id="i6Ho6Q-GTRiIqyABe8Sr-13" value="ADS" style="text;html=1;strokeColor=none;fillColor=none;align=center;verticalAlign=middle;whiteSpace=wrap;rounded=0;fontSize=17;" vertex="1" parent="1">
          <mxGeometry x="708" y="294" width="60" height="30" as="geometry" />
        </mxCell>
        <mxCell id="i6Ho6Q-GTRiIqyABe8Sr-15" value="table" style="rounded=1;whiteSpace=wrap;html=1;fillColor=#fff2cc;strokeColor=#d6b656;" vertex="1" parent="1">
          <mxGeometry x="714" y="508" width="48" height="33" as="geometry" />
        </mxCell>
        <mxCell id="i6Ho6Q-GTRiIqyABe8Sr-17" value="table" style="rounded=1;whiteSpace=wrap;html=1;fillColor=#fad9d5;strokeColor=#ae4132;" vertex="1" parent="1">
          <mxGeometry x="211" y="690" width="48" height="33" as="geometry" />
        </mxCell>
        <mxCell id="i6Ho6Q-GTRiIqyABe8Sr-18" value="DIM" style="text;html=1;strokeColor=none;fillColor=none;align=center;verticalAlign=middle;whiteSpace=wrap;rounded=0;fontSize=17;" vertex="1" parent="1">
          <mxGeometry x="205" y="739" width="60" height="30" as="geometry" />
        </mxCell>
        <mxCell id="i6Ho6Q-GTRiIqyABe8Sr-73" style="edgeStyle=orthogonalEdgeStyle;rounded=0;orthogonalLoop=1;jettySize=auto;html=1;entryX=0;entryY=0.5;entryDx=0;entryDy=0;shadow=0;fontSize=17;" edge="1" parent="1" source="i6Ho6Q-GTRiIqyABe8Sr-21" target="i6Ho6Q-GTRiIqyABe8Sr-23">
          <mxGeometry relative="1" as="geometry" />
        </mxCell>
        <mxCell id="i6Ho6Q-GTRiIqyABe8Sr-21" value="table" style="rounded=1;whiteSpace=wrap;html=1;fillColor=#d5e8d4;strokeColor=#82b366;" vertex="1" parent="1">
          <mxGeometry x="211" y="618" width="48" height="33" as="geometry" />
        </mxCell>
        <mxCell id="i6Ho6Q-GTRiIqyABe8Sr-22" value="table" style="rounded=1;whiteSpace=wrap;html=1;fillColor=#d5e8d4;strokeColor=#82b366;" vertex="1" parent="1">
          <mxGeometry x="519" y="399" width="48" height="33" as="geometry" />
        </mxCell>
        <mxCell id="i6Ho6Q-GTRiIqyABe8Sr-76" style="edgeStyle=orthogonalEdgeStyle;rounded=0;orthogonalLoop=1;jettySize=auto;html=1;entryX=0;entryY=0.5;entryDx=0;entryDy=0;shadow=0;fontSize=17;" edge="1" parent="1" source="i6Ho6Q-GTRiIqyABe8Sr-23" target="i6Ho6Q-GTRiIqyABe8Sr-24">
          <mxGeometry relative="1" as="geometry" />
        </mxCell>
        <mxCell id="i6Ho6Q-GTRiIqyABe8Sr-23" value="table" style="rounded=1;whiteSpace=wrap;html=1;fillColor=#d5e8d4;strokeColor=#82b366;" vertex="1" parent="1">
          <mxGeometry x="333" y="618" width="48" height="33" as="geometry" />
        </mxCell>
        <mxCell id="i6Ho6Q-GTRiIqyABe8Sr-24" value="table" style="rounded=1;whiteSpace=wrap;html=1;fillColor=#d5e8d4;strokeColor=#82b366;" vertex="1" parent="1">
          <mxGeometry x="519" y="618" width="48" height="33" as="geometry" />
        </mxCell>
        <mxCell id="i6Ho6Q-GTRiIqyABe8Sr-30" value="" style="curved=1;endArrow=classic;html=1;rounded=0;fontSize=17;entryX=0;entryY=0.5;entryDx=0;entryDy=0;exitX=1;exitY=0.5;exitDx=0;exitDy=0;" edge="1" parent="1" source="i6Ho6Q-GTRiIqyABe8Sr-3" target="i6Ho6Q-GTRiIqyABe8Sr-21">
          <mxGeometry width="50" height="50" relative="1" as="geometry">
            <mxPoint x="134" y="611" as="sourcePoint" />
            <mxPoint x="203" y="627" as="targetPoint" />
            <Array as="points">
              <mxPoint x="159" y="596" />
              <mxPoint x="163" y="639" />
            </Array>
          </mxGeometry>
        </mxCell>
        <mxCell id="i6Ho6Q-GTRiIqyABe8Sr-56" value="" style="edgeStyle=orthogonalEdgeStyle;rounded=0;orthogonalLoop=1;jettySize=auto;html=1;shadow=0;fontSize=17;" edge="1" parent="1" source="i6Ho6Q-GTRiIqyABe8Sr-43" target="i6Ho6Q-GTRiIqyABe8Sr-7">
          <mxGeometry relative="1" as="geometry" />
        </mxCell>
        <mxCell id="i6Ho6Q-GTRiIqyABe8Sr-43" value="table" style="rounded=1;whiteSpace=wrap;html=1;fillColor=#d5e8d4;strokeColor=#82b366;" vertex="1" parent="1">
          <mxGeometry x="211" y="399" width="48" height="33" as="geometry" />
        </mxCell>
        <mxCell id="i6Ho6Q-GTRiIqyABe8Sr-44" value="" style="curved=1;endArrow=classic;html=1;rounded=0;fontSize=17;entryX=0;entryY=0.5;entryDx=0;entryDy=0;exitX=1.022;exitY=0.559;exitDx=0;exitDy=0;exitPerimeter=0;" edge="1" parent="1" source="i6Ho6Q-GTRiIqyABe8Sr-46" target="i6Ho6Q-GTRiIqyABe8Sr-47">
          <mxGeometry width="50" height="50" relative="1" as="geometry">
            <mxPoint x="131" y="452" as="sourcePoint" />
            <mxPoint x="209" y="474.5" as="targetPoint" />
            <Array as="points">
              <mxPoint x="150" y="451.5" />
              <mxPoint x="164" y="459" />
              <mxPoint x="164" y="476" />
              <mxPoint x="183" y="485" />
            </Array>
          </mxGeometry>
        </mxCell>
        <mxCell id="i6Ho6Q-GTRiIqyABe8Sr-45" value="" style="curved=1;endArrow=classic;html=1;rounded=0;fontSize=17;exitX=1;exitY=0.5;exitDx=0;exitDy=0;entryX=0;entryY=0.5;entryDx=0;entryDy=0;" edge="1" parent="1" target="i6Ho6Q-GTRiIqyABe8Sr-43">
          <mxGeometry width="50" height="50" relative="1" as="geometry">
            <mxPoint x="138" y="452.5" as="sourcePoint" />
            <mxPoint x="210" y="417" as="targetPoint" />
            <Array as="points">
              <mxPoint x="150" y="450" />
              <mxPoint x="164" y="442" />
              <mxPoint x="164" y="422" />
              <mxPoint x="185" y="413" />
            </Array>
          </mxGeometry>
        </mxCell>
        <mxCell id="i6Ho6Q-GTRiIqyABe8Sr-46" value="table" style="rounded=1;whiteSpace=wrap;html=1;fillColor=#dae8fc;strokeColor=#6c8ebf;" vertex="1" parent="1">
          <mxGeometry x="95" y="432" width="48" height="33" as="geometry" />
        </mxCell>
        <mxCell id="i6Ho6Q-GTRiIqyABe8Sr-47" value="table" style="rounded=1;whiteSpace=wrap;html=1;fillColor=#d5e8d4;strokeColor=#82b366;" vertex="1" parent="1">
          <mxGeometry x="211" y="465" width="48" height="33" as="geometry" />
        </mxCell>
        <mxCell id="i6Ho6Q-GTRiIqyABe8Sr-49" value="" style="curved=1;endArrow=classic;html=1;rounded=0;fontSize=17;entryX=0;entryY=0.5;entryDx=0;entryDy=0;exitX=1.022;exitY=0.559;exitDx=0;exitDy=0;exitPerimeter=0;" edge="1" parent="1" source="i6Ho6Q-GTRiIqyABe8Sr-51" target="i6Ho6Q-GTRiIqyABe8Sr-52">
          <mxGeometry width="50" height="50" relative="1" as="geometry">
            <mxPoint x="131" y="526" as="sourcePoint" />
            <mxPoint x="209" y="548.5" as="targetPoint" />
            <Array as="points">
              <mxPoint x="150" y="525.5" />
              <mxPoint x="164" y="533" />
              <mxPoint x="164" y="550" />
              <mxPoint x="183" y="559" />
            </Array>
          </mxGeometry>
        </mxCell>
        <mxCell id="i6Ho6Q-GTRiIqyABe8Sr-50" value="" style="curved=1;endArrow=classic;html=1;rounded=0;fontSize=17;exitX=1;exitY=0.5;exitDx=0;exitDy=0;entryX=0;entryY=0.5;entryDx=0;entryDy=0;" edge="1" parent="1" target="i6Ho6Q-GTRiIqyABe8Sr-47">
          <mxGeometry width="50" height="50" relative="1" as="geometry">
            <mxPoint x="138" y="526.5" as="sourcePoint" />
            <mxPoint x="211" y="489.5" as="targetPoint" />
            <Array as="points">
              <mxPoint x="150" y="524" />
              <mxPoint x="164" y="516" />
              <mxPoint x="164" y="496" />
              <mxPoint x="185" y="485" />
            </Array>
          </mxGeometry>
        </mxCell>
        <mxCell id="i6Ho6Q-GTRiIqyABe8Sr-51" value="table" style="rounded=1;whiteSpace=wrap;html=1;fillColor=#dae8fc;strokeColor=#6c8ebf;" vertex="1" parent="1">
          <mxGeometry x="95" y="506" width="48" height="33" as="geometry" />
        </mxCell>
        <mxCell id="i6Ho6Q-GTRiIqyABe8Sr-52" value="table" style="rounded=1;whiteSpace=wrap;html=1;fillColor=#d5e8d4;strokeColor=#82b366;" vertex="1" parent="1">
          <mxGeometry x="211" y="539" width="48" height="33" as="geometry" />
        </mxCell>
        <mxCell id="i6Ho6Q-GTRiIqyABe8Sr-59" style="edgeStyle=orthogonalEdgeStyle;rounded=0;orthogonalLoop=1;jettySize=auto;html=1;entryX=0;entryY=0.5;entryDx=0;entryDy=0;fontSize=17;" edge="1" parent="1" source="i6Ho6Q-GTRiIqyABe8Sr-60" target="i6Ho6Q-GTRiIqyABe8Sr-61">
          <mxGeometry relative="1" as="geometry" />
        </mxCell>
        <mxCell id="i6Ho6Q-GTRiIqyABe8Sr-60" value="table" style="rounded=1;whiteSpace=wrap;html=1;fillColor=#dae8fc;strokeColor=#6c8ebf;" vertex="1" parent="1">
          <mxGeometry x="95" y="340" width="48" height="33" as="geometry" />
        </mxCell>
        <mxCell id="i6Ho6Q-GTRiIqyABe8Sr-61" value="table" style="rounded=1;whiteSpace=wrap;html=1;fillColor=#fad9d5;strokeColor=#ae4132;" vertex="1" parent="1">
          <mxGeometry x="211" y="340" width="48" height="33" as="geometry" />
        </mxCell>
        <mxCell id="i6Ho6Q-GTRiIqyABe8Sr-63" value="" style="curved=1;endArrow=classic;html=1;rounded=0;shadow=0;fontSize=17;exitX=1;exitY=0.5;exitDx=0;exitDy=0;entryX=0;entryY=0.5;entryDx=0;entryDy=0;" edge="1" parent="1" source="i6Ho6Q-GTRiIqyABe8Sr-61" target="i6Ho6Q-GTRiIqyABe8Sr-22">
          <mxGeometry width="50" height="50" relative="1" as="geometry">
            <mxPoint x="445" y="379" as="sourcePoint" />
            <mxPoint x="495" y="329" as="targetPoint" />
            <Array as="points">
              <mxPoint x="402" y="346" />
              <mxPoint x="432" y="416" />
            </Array>
          </mxGeometry>
        </mxCell>
        <mxCell id="i6Ho6Q-GTRiIqyABe8Sr-65" value="" style="curved=1;endArrow=classic;html=1;rounded=0;shadow=0;fontSize=17;exitX=1;exitY=0.5;exitDx=0;exitDy=0;entryX=0;entryY=0.5;entryDx=0;entryDy=0;" edge="1" parent="1" source="i6Ho6Q-GTRiIqyABe8Sr-47" target="i6Ho6Q-GTRiIqyABe8Sr-22">
          <mxGeometry width="50" height="50" relative="1" as="geometry">
            <mxPoint x="414" y="540" as="sourcePoint" />
            <mxPoint x="464" y="490" as="targetPoint" />
            <Array as="points">
              <mxPoint x="407" y="486" />
              <mxPoint x="432" y="416" />
            </Array>
          </mxGeometry>
        </mxCell>
        <mxCell id="i6Ho6Q-GTRiIqyABe8Sr-74" value="" style="curved=1;endArrow=classic;html=1;rounded=0;shadow=0;fontSize=17;exitX=1;exitY=0.5;exitDx=0;exitDy=0;entryX=0;entryY=0.5;entryDx=0;entryDy=0;" edge="1" parent="1" source="i6Ho6Q-GTRiIqyABe8Sr-52" target="i6Ho6Q-GTRiIqyABe8Sr-23">
          <mxGeometry width="50" height="50" relative="1" as="geometry">
            <mxPoint x="324" y="566" as="sourcePoint" />
            <mxPoint x="374" y="516" as="targetPoint" />
            <Array as="points">
              <mxPoint x="271" y="553" />
              <mxPoint x="273" y="595" />
              <mxPoint x="285" y="633" />
            </Array>
          </mxGeometry>
        </mxCell>
        <mxCell id="i6Ho6Q-GTRiIqyABe8Sr-75" value="" style="curved=1;endArrow=classic;html=1;rounded=0;shadow=0;fontSize=17;exitX=1;exitY=0.5;exitDx=0;exitDy=0;entryX=0;entryY=0.5;entryDx=0;entryDy=0;" edge="1" parent="1" source="i6Ho6Q-GTRiIqyABe8Sr-17" target="i6Ho6Q-GTRiIqyABe8Sr-23">
          <mxGeometry width="50" height="50" relative="1" as="geometry">
            <mxPoint x="308" y="752" as="sourcePoint" />
            <mxPoint x="358" y="702" as="targetPoint" />
            <Array as="points">
              <mxPoint x="273" y="709" />
              <mxPoint x="278" y="649" />
              <mxPoint x="292" y="636" />
            </Array>
          </mxGeometry>
        </mxCell>
        <mxCell id="i6Ho6Q-GTRiIqyABe8Sr-77" value="" style="curved=1;endArrow=classic;html=1;rounded=0;shadow=0;fontSize=17;entryX=0;entryY=0.5;entryDx=0;entryDy=0;exitX=1;exitY=0.5;exitDx=0;exitDy=0;" edge="1" parent="1" source="i6Ho6Q-GTRiIqyABe8Sr-17" target="i6Ho6Q-GTRiIqyABe8Sr-24">
          <mxGeometry width="50" height="50" relative="1" as="geometry">
            <mxPoint x="390" y="739" as="sourcePoint" />
            <mxPoint x="440" y="689" as="targetPoint" />
            <Array as="points">
              <mxPoint x="365" y="707" />
              <mxPoint x="395" y="695" />
              <mxPoint x="456" y="636" />
            </Array>
          </mxGeometry>
        </mxCell>
        <mxCell id="i6Ho6Q-GTRiIqyABe8Sr-78" value="" style="curved=1;endArrow=classic;html=1;rounded=0;shadow=0;fontSize=17;exitX=1;exitY=0.5;exitDx=0;exitDy=0;entryX=0;entryY=0.5;entryDx=0;entryDy=0;" edge="1" parent="1" source="i6Ho6Q-GTRiIqyABe8Sr-22" target="i6Ho6Q-GTRiIqyABe8Sr-15">
          <mxGeometry width="50" height="50" relative="1" as="geometry">
            <mxPoint x="624" y="504" as="sourcePoint" />
            <mxPoint x="674" y="454" as="targetPoint" />
            <Array as="points">
              <mxPoint x="596" y="416" />
              <mxPoint x="616" y="422" />
              <mxPoint x="640" y="474" />
              <mxPoint x="653" y="524" />
            </Array>
          </mxGeometry>
        </mxCell>
        <mxCell id="i6Ho6Q-GTRiIqyABe8Sr-79" value="" style="curved=1;endArrow=classic;html=1;rounded=0;shadow=0;fontSize=17;entryX=0;entryY=0.5;entryDx=0;entryDy=0;exitX=1;exitY=0.5;exitDx=0;exitDy=0;" edge="1" parent="1" source="i6Ho6Q-GTRiIqyABe8Sr-24" target="i6Ho6Q-GTRiIqyABe8Sr-15">
          <mxGeometry width="50" height="50" relative="1" as="geometry">
            <mxPoint x="618" y="669" as="sourcePoint" />
            <mxPoint x="711" y="523" as="targetPoint" />
            <Array as="points">
              <mxPoint x="593" y="636" />
              <mxPoint x="618" y="619" />
              <mxPoint x="654" y="525" />
            </Array>
          </mxGeometry>
        </mxCell>
      </root>
    </mxGraphModel>
  </diagram>
</mxfile>
